<svg id="visual" viewBox="0 0 960 540" width="960" height="540" xmlns="http://www.w3.org/2000/svg" xmlns:xlink="http://www.w3.org/1999/xlink" version="1.1"><rect x="0" y="0" width="960" height="540" fill="#001220"></rect><defs><linearGradient id="grad1_0" x1="43.8%" y1="0%" x2="100%" y2="100%"><stop offset="14.444444444444446%" stop-color="#fbae3c" stop-opacity="1"></stop><stop offset="85.55555555555554%" stop-color="#fbae3c" stop-opacity="1"></stop></linearGradient></defs><defs><linearGradient id="grad1_1" x1="43.8%" y1="0%" x2="100%" y2="100%"><stop offset="14.444444444444446%" stop-color="#fbae3c" stop-opacity="1"></stop><stop offset="85.55555555555554%" stop-color="#e1685e" stop-opacity="1"></stop></linearGradient></defs><defs><linearGradient id="grad1_2" x1="43.8%" y1="0%" x2="100%" y2="100%"><stop offset="14.444444444444446%" stop-color="#96446e" stop-opacity="1"></stop><stop offset="85.55555555555554%" stop-color="#e1685e" stop-opacity="1"></stop></linearGradient></defs><defs><linearGradient id="grad1_3" x1="43.8%" y1="0%" x2="100%" y2="100%"><stop offset="14.444444444444446%" stop-color="#96446e" stop-opacity="1"></stop><stop offset="85.55555555555554%" stop-color="#3d3056" stop-opacity="1"></stop></linearGradient></defs><defs><linearGradient id="grad1_4" x1="43.8%" y1="0%" x2="100%" y2="100%"><stop offset="14.444444444444446%" stop-color="#001220" stop-opacity="1"></stop><stop offset="85.55555555555554%" stop-color="#3d3056" stop-opacity="1"></stop></linearGradient></defs><defs><linearGradient id="grad2_0" x1="0%" y1="0%" x2="56.3%" y2="100%"><stop offset="14.444444444444446%" stop-color="#fbae3c" stop-opacity="1"></stop><stop offset="85.55555555555554%" stop-color="#fbae3c" stop-opacity="1"></stop></linearGradient></defs><defs><linearGradient id="grad2_1" x1="0%" y1="0%" x2="56.3%" y2="100%"><stop offset="14.444444444444446%" stop-color="#e1685e" stop-opacity="1"></stop><stop offset="85.55555555555554%" stop-color="#fbae3c" stop-opacity="1"></stop></linearGradient></defs><defs><linearGradient id="grad2_2" x1="0%" y1="0%" x2="56.3%" y2="100%"><stop offset="14.444444444444446%" stop-color="#e1685e" stop-opacity="1"></stop><stop offset="85.55555555555554%" stop-color="#96446e" stop-opacity="1"></stop></linearGradient></defs><defs><linearGradient id="grad2_3" x1="0%" y1="0%" x2="56.3%" y2="100%"><stop offset="14.444444444444446%" stop-color="#3d3056" stop-opacity="1"></stop><stop offset="85.55555555555554%" stop-color="#96446e" stop-opacity="1"></stop></linearGradient></defs><defs><linearGradient id="grad2_4" x1="0%" y1="0%" x2="56.3%" y2="100%"><stop offset="14.444444444444446%" stop-color="#3d3056" stop-opacity="1"></stop><stop offset="85.55555555555554%" stop-color="#001220" stop-opacity="1"></stop></linearGradient></defs><g transform="translate(960, 0)"><path d="M0 324C-59.5 317.2 -119.1 310.4 -162 280.6C-204.9 250.8 -231.2 198.1 -255.5 147.5C-279.7 96.9 -301.9 48.5 -324 0L0 0Z" fill="#18223c"></path><path d="M0 259.2C-47.6 253.7 -95.3 248.3 -129.6 224.5C-163.9 200.7 -185 158.5 -204.4 118C-223.8 77.5 -241.5 38.8 -259.2 0L0 0Z" fill="#683a67"></path><path d="M0 194.4C-35.7 190.3 -71.4 186.2 -97.2 168.4C-123 150.5 -138.7 118.9 -153.3 88.5C-167.8 58.1 -181.1 29.1 -194.4 0L0 0Z" fill="#c0526a"></path><path d="M0 129.6C-23.8 126.9 -47.6 124.1 -64.8 112.2C-82 100.3 -92.5 79.2 -102.2 59C-111.9 38.8 -120.7 19.4 -129.6 0L0 0Z" fill="#f6884d"></path><path d="M0 64.8C-11.9 63.4 -23.8 62.1 -32.4 56.1C-41 50.2 -46.2 39.6 -51.1 29.5C-55.9 19.4 -60.4 9.7 -64.8 0L0 0Z" fill="#fbae3c"></path></g><g transform="translate(0, 540)"><path d="M0 -324C57.2 -315.8 114.5 -307.7 162 -280.6C209.5 -253.5 247.4 -207.4 272.8 -157.5C298.2 -107.6 311.1 -53.8 324 0L0 0Z" fill="#18223c"></path><path d="M0 -259.2C45.8 -252.7 91.6 -246.2 129.6 -224.5C167.6 -202.8 197.9 -165.9 218.2 -126C238.5 -86.1 248.9 -43 259.2 0L0 0Z" fill="#683a67"></path><path d="M0 -194.4C34.3 -189.5 68.7 -184.6 97.2 -168.4C125.7 -152.1 148.4 -124.5 163.7 -94.5C178.9 -64.5 186.7 -32.3 194.4 0L0 0Z" fill="#c0526a"></path><path d="M0 -129.6C22.9 -126.3 45.8 -123.1 64.8 -112.2C83.8 -101.4 99 -83 109.1 -63C119.3 -43 124.4 -21.5 129.6 0L0 0Z" fill="#f6884d"></path><path d="M0 -64.8C11.4 -63.2 22.9 -61.5 32.4 -56.1C41.9 -50.7 49.5 -41.5 54.6 -31.5C59.6 -21.5 62.2 -10.8 64.8 0L0 0Z" fill="#fbae3c"></path></g></svg>